[Header]
FileType HTR
DataType HTRS
FileVersion 1
NumSegments 36
NumFrames 4
DataFrameRate 120
EulerRotationOrder ZYX
CalibrationUnits mm
RotationUnits Degrees
GlobalAxisofGravity Y
BoneLengthAxis Y
ScaleFactor 1.0
[SegmentNames&Hierarchy]
Hips	GLOBAL
Spine	Hips
Spine1	Spine
Spine2	Spine1
Spine3	Spine2
Neck	Spine3
Head	Neck
HeadEnd	Head
RightShoulder	Spine3
RightArm	RightShoulder
RightForeArm	RightArm
RightForeArmRoll	RightForeArm
RightHand	RightForeArmRoll
RightHandEnd	RightHand
R_FingersEnd	RightHandEnd
RightHandThumb1	RightHand
RightHandThumb2	RightHandThumb1
LeftShoulder	Spine3
LeftArm	LeftShoulder
LeftForeArm	LeftArm
LeftForeArmRoll	LeftForeArm
LeftHand	LeftForeArmRoll
LeftHandEnd	LeftHand
L_FingersEnd	LeftHandEnd
LeftHandThumb1	LeftHand
LeftHandThumb2	LeftHandThumb1
RightUpLeg	Hips
RightLeg	RightUpLeg
RightFoot	RightLeg
RightToeBase	RightFoot
RightToeBaseEnd	RightToeBase
LeftUpLeg	Hips
LeftLeg	LeftUpLeg
LeftFoot	LeftLeg
LeftToeBase	LeftFoot
LeftToeBaseEnd	LeftToeBase
[BasePosition]
Hips	0	0	0	0	0	0	1
Spine	0	0	0	-10	-0	0	1
Spine1	0	0	0	5	0	0	1
Spine2	0	0	0	5	0	0	1
Spine3	0	0	0	0	0	0	1
Neck	0	0	0	10	0	0	1
Head	0	0	0	-10	-0	0	1
HeadEnd	0	0	0	0	0	0	1
RightShoulder	0	0	0	-180	-0	-180	1
RightArm	0	0	0	0	0	0	1
RightForeArm	0	0	0	0	0	0	1
RightForeArmRoll	0	0	0	0	0	0	1
RightHand	0	0	0	0	0	0	1
RightHandEnd	0	0	0	-90	-0	0	1
R_FingersEnd	0	0	0	0	0	0	1
RightHandThumb1	0	0	0	170	-0	-15	1
RightHandThumb2	0	0	0	0	0	0	1
LeftShoulder	0	0	0	0	0	0	1
LeftArm	0	0	0	0	0	0	1
LeftForeArm	0	0	0	0	0	0	1
LeftForeArmRoll	0	0	0	0	0	0	1
LeftHand	0	0	0	0	0	0	1
LeftHandEnd	0	0	0	90	0	0	1
L_FingersEnd	0	0	0	0	0	0	1
LeftHandThumb1	0	0	0	170	-0	-15	1
LeftHandThumb2	0	0	0	0	0	0	1
RightUpLeg	0	0	0	-0	90	0	1
RightLeg	0	0	0	0	0	0	1
RightFoot	0	0	0	0	-0	-70	1
RightToeBase	0	0	0	0	-0	-20	1
RightToeBaseEnd	0	0	0	0	0	0	1
LeftUpLeg	0	0	0	-0	90	0	1
LeftLeg	0	0	0	0	0	0	1
LeftFoot	0	0	0	0	-0	-70	1
LeftToeBase	0	0	0	0	-0	-20	1
LeftToeBaseEnd	0	0	0	0	0	0	1
[Hips]
31	-5.714159489	970.4832764	-19.97320557	-89.23079681	-0.1207264885	0.2676846385	1.0
32	-5.659120083	970.4855347	-19.88440514	-89.22072601	-0.1158222705	0.27387923	1.0
33	-5.607428074	970.4916992	-19.77880859	-89.21252441	-0.1109617054	0.2790856659	1.0
34	-5.55817318	970.5004272	-19.66911507	-89.20797729	-0.1064083725	0.2825788856	1.0
[Spine]
31	0	44.87670517	67.31505585	-0.2970983982	0.3988994062	0.07233645022	1.0
32	0	44.87670517	67.31505585	-0.2986202538	0.3980154991	0.07192791998	1.0
33	0	44.87670517	67.31505585	-0.2983317077	0.397637099	0.07185828686	1.0
34	0	44.87670517	67.31505585	-0.2951775491	0.3977591395	0.0722854659	1.0
[Spine1]
31	0	0	89.75341034	-0.7094230056	0.030400455	-0.003226348432	1.0
32	0	0	89.75341034	-0.712669611	0.02723783813	-0.004089580849	1.0
33	0	0	89.75341034	-0.7127655745	0.02512639575	-0.004602157045	1.0
34	0	0	89.75341034	-0.7081260085	0.02464079112	-0.004586934112	1.0
[Spine2]
31	0	0	89.75341034	1.440674067	0.4726443887	0.3403813839	1.0
32	0	0	89.75341034	1.448060274	0.4795790911	0.3346406221	1.0
33	0	0	89.75341034	1.451452494	0.4844919443	0.3303823173	1.0
34	0	0	89.75341034	1.449148178	0.4860752821	0.3278623521	1.0
[Spine3]
31	0	0	89.75341034	0.1410912275	-0.4010541737	-0.07932171226	1.0
32	0	0	89.75341034	0.1428573132	-0.3984335661	-0.08443980664	1.0
33	0	0	89.75341034	0.1433895677	-0.3970175385	-0.08744755387	1.0
34	0	0	89.75341034	0.1421341598	-0.3974815607	-0.0871335566	1.0
[Neck]
31	0	-33.65752792	235.6027069	-1.260166168	0.1670740992	-0.1085539609	1.0
32	0	-33.65752792	235.6027069	-1.260048389	0.1658383459	-0.100924924	1.0
33	0	-33.65752792	235.6027069	-1.25735867	0.1621459275	-0.09764299542	1.0
34	0	-33.65752792	235.6027069	-1.249356031	0.1545844972	-0.1015821844	1.0
[Head]
31	0	0	123.4109421	-1.04885304	-0.2602963448	-1.017496228	1.0
32	0	0	123.4109421	-1.049371123	-0.2542211413	-1.010865211	1.0
33	0	0	123.4109421	-1.04995966	-0.2461947948	-1.005629301	1.0
34	0	0	123.4109421	-1.051632643	-0.233798191	-1.00199759	1.0
[HeadEnd]
31	0	0	145.2883301	0	0	0	1.0
32	0	0	145.2883301	0	0	0	1.0
33	0	0	145.2883301	0	0	0	1.0
34	0	0	145.2883301	0	0	0	1.0
[RightShoulder]
31	-30.74827576	-51.24713135	166.0407104	-4.539755821	-5.905759811	0.8783071041	1.0
32	-30.74827576	-51.24713135	166.0407104	-4.535451889	-5.905082226	0.8671522737	1.0
33	-30.74827576	-51.24713135	166.0407104	-4.53034687	-5.903987408	0.8597043753	1.0
34	-30.74827576	-51.24713135	166.0407104	-4.524523258	-5.901661396	0.8572705984	1.0
[RightArm]
31	152.7164459	0	0	-24.70513535	-69.01831818	4.339859962	1.0
32	152.7164459	0	0	-24.64836121	-69.0226059	4.306957245	1.0
33	152.7164459	0	0	-24.60606575	-69.02741241	4.283686161	1.0
34	152.7164459	0	0	-24.58307648	-69.03308868	4.274684429	1.0
[RightForeArm]
31	297.8946228	0	0	0	0	-31.25554085	1.0
32	297.8946228	0	0	0	0	-31.26821518	1.0
33	297.8946228	0	0	0	0	-31.27684212	1.0
34	297.8946228	0	0	0	0	-31.2804718	1.0
[RightForeArmRoll]
31	122.9768982	0	0	4.572078705	0	0	1.0
32	122.9768982	0	0	4.564845085	0	0	1.0
33	122.9768982	0	0	4.55562973	0	0	1.0
34	122.9768982	0	0	4.53827095	0	0	1.0
[RightHand]
31	127.1009369	0	0	1.787468682e-005	8.000267029	-3.113389492	1.0
32	127.1009369	0	0	-6.472938367e-006	7.974335194	-3.092818737	1.0
33	127.1009369	0	0	-2.109414709e-005	7.954182625	-3.081231117	1.0
34	127.1009369	0	0	-2.123634113e-005	7.94092989	-3.081938982	1.0
[RightHandEnd]
31	72.05677795	0	0	0	0	0	1.0
32	72.05677795	0	0	0	0	0	1.0
33	72.05677795	0	0	0	0	0	1.0
34	72.05677795	0	0	0	0	0	1.0
[R_FingersEnd]
31	72.05677795	0	0	0	0	0	1.0
32	72.05677795	0	0	0	0	0	1.0
33	72.05677795	0	0	0	0	0	1.0
34	72.05677795	0	0	0	0	0	1.0
[RightHandThumb1]
31	28.82271004	-48.03784943	19.2151413	0	0	0	1.0
32	28.82271004	-48.03784943	19.2151413	0	0	0	1.0
33	28.82271004	-48.03784943	19.2151413	0	0	0	1.0
34	28.82271004	-48.03784943	19.2151413	0	0	0	1.0
[RightHandThumb2]
31	72.05677795	0	0	0	0	0	1.0
32	72.05677795	0	0	0	0	0	1.0
33	72.05677795	0	0	0	0	0	1.0
34	72.05677795	0	0	0	0	0	1.0
[LeftShoulder]
31	30.74827576	-51.24713135	166.0407104	5.470527649	6.104251862	3.054193497	1.0
32	30.74827576	-51.24713135	166.0407104	5.476893425	6.114260674	3.070434809	1.0
33	30.74827576	-51.24713135	166.0407104	5.479522228	6.122302532	3.080999613	1.0
34	30.74827576	-51.24713135	166.0407104	5.477582932	6.129389763	3.083743572	1.0
[LeftArm]
31	152.7164459	0	0	4.237051964	68.72200012	-34.22237778	1.0
32	152.7164459	0	0	4.22488308	68.70678711	-34.26621628	1.0
33	152.7164459	0	0	4.204384804	68.69832611	-34.30044556	1.0
34	152.7164459	0	0	4.175271034	68.69825745	-34.32019043	1.0
[LeftForeArm]
31	297.8946228	0	0	0	0	-19.26443481	1.0
32	297.8946228	0	0	0	0	-19.26076698	1.0
33	297.8946228	0	0	0	0	-19.25806046	1.0
34	297.8946228	0	0	0	0	-19.25611496	1.0
[LeftForeArmRoll]
31	122.9768982	0	0	-4.381690025	0	0	1.0
32	122.9768982	0	0	-4.434587955	0	0	1.0
33	122.9768982	0	0	-4.501448631	0	0	1.0
34	122.9768982	0	0	-4.586563587	0	0	1.0
[LeftHand]
31	127.1009369	0	0	7.714595267e-005	-21.28516006	1.110148787	1.0
32	127.1009369	0	0	-3.486617061e-006	-21.32963753	1.089474916	1.0
33	127.1009369	0	0	-4.593515769e-005	-21.3538456	1.060554624	1.0
34	127.1009369	0	0	-2.802122253e-005	-21.35172272	1.021273851	1.0
[LeftHandEnd]
31	72.05677795	0	0	0	0	0	1.0
32	72.05677795	0	0	0	0	0	1.0
33	72.05677795	0	0	0	0	0	1.0
34	72.05677795	0	0	0	0	0	1.0
[L_FingersEnd]
31	72.05677795	0	0	0	0	0	1.0
32	72.05677795	0	0	0	0	0	1.0
33	72.05677795	0	0	0	0	0	1.0
34	72.05677795	0	0	0	0	0	1.0
[LeftHandThumb1]
31	28.82271004	-48.03784943	-19.2151413	0	0	0	1.0
32	28.82271004	-48.03784943	-19.2151413	0	0	0	1.0
33	28.82271004	-48.03784943	-19.2151413	0	0	0	1.0
34	28.82271004	-48.03784943	-19.2151413	0	0	0	1.0
[LeftHandThumb2]
31	72.05677795	0	0	0	0	0	1.0
32	72.05677795	0	0	0	0	0	1.0
33	72.05677795	0	0	0	0	0	1.0
34	72.05677795	0	0	0	0	0	1.0
[RightUpLeg]
31	-91.21989441	0	-26.64850616	9.577968597	4.456251144	-0.7234873772	1.0
32	-91.21989441	0	-26.64850616	9.566574097	4.463592529	-0.7242692709	1.0
33	-91.21989441	0	-26.64850616	9.555620193	4.469681263	-0.7225295901	1.0
34	-91.21989441	0	-26.64850616	9.545765877	4.473365784	-0.7160720825	1.0
[RightLeg]
31	402.8824463	0	0	0	0	15.08944416	1.0
32	402.8824463	0	0	0	0	15.08213139	1.0
33	402.8824463	0	0	0	0	15.07374573	1.0
34	402.8824463	0	0	0	0	15.06472683	1.0
[RightFoot]
31	435.9781189	0	0	4.418413162	-2.104861021	-15.10377502	1.0
32	435.9781189	0	0	4.424656391	-2.088149548	-15.10355854	1.0
33	435.9781189	0	0	4.429643154	-2.072172403	-15.10338688	1.0
34	435.9781189	0	0	4.433024406	-2.055881739	-15.1040554	1.0
[RightToeBase]
31	183.1846619	0	0	0	0	0.7135238647	1.0
32	183.1846619	0	0	0	0	0.6866215467	1.0
33	183.1846619	0	0	0	0	0.6728759408	1.0
34	183.1846619	0	0	0	0	0.6803430319	1.0
[RightToeBaseEnd]
31	73.79586792	0	0	0	0	0	1.0
32	73.79586792	0	0	0	0	0	1.0
33	73.79586792	0	0	0	0	0	1.0
34	73.79586792	0	0	0	0	0	1.0
[LeftUpLeg]
31	91.21989441	0	-26.64850616	0.9098913074	-4.964880466	0.7107781172	1.0
32	91.21989441	0	-26.64850616	0.9011389017	-4.955940247	0.7065469027	1.0
33	91.21989441	0	-26.64850616	0.8960114121	-4.947980404	0.7053175569	1.0
34	91.21989441	0	-26.64850616	0.8963446617	-4.941707134	0.7108504176	1.0
[LeftLeg]
31	402.8824463	0	0	0	0	11.11224174	1.0
32	402.8824463	0	0	0	0	11.10740089	1.0
33	402.8824463	0	0	0	0	11.10094547	1.0
34	402.8824463	0	0	0	0	11.09036541	1.0
[LeftFoot]
31	435.9781189	0	0	-8.017332077	-0.6437627077	-12.72334671	1.0
32	435.9781189	0	0	-8.014943123	-0.6319711804	-12.7187748	1.0
33	435.9781189	0	0	-8.013061523	-0.6233362556	-12.71324158	1.0
34	435.9781189	0	0	-8.012478828	-0.6197034717	-12.70648766	1.0
[LeftToeBase]
31	183.1846619	0	0	0	0	0.871309936	1.0
32	183.1846619	0	0	0	0	0.8816649914	1.0
33	183.1846619	0	0	0	0	0.8912827969	1.0
34	183.1846619	0	0	0	0	0.9013025761	1.0
[LeftToeBaseEnd]
31	73.79586792	0	0	0	0	0	1.0
32	73.79586792	0	0	0	0	0	1.0
33	73.79586792	0	0	0	0	0	1.0
34	73.79586792	0	0	0	0	0	1.0
[EndOfFile]
